<svg xmlns="http://www.w3.org/2000/svg" version="1.1" xmlns:xlink="http://www.w3.org/1999/xlink" xmlns:svgjs="http://svgjs.dev/svgjs" width="1440" height="560" preserveAspectRatio="none" viewBox="0 0 1440 560"><g mask="url(&quot;#SvgjsMask1002&quot;)" fill="none"><rect width="1440" height="560" x="0" y="0" fill="#0e2a47"></rect><path d="M132.16 107.86L197.12 145.36L197.12 220.36L132.16 257.86L67.21 220.36L67.21 145.36zM67.21 220.36L132.16 257.86L132.16 332.86L67.21 370.36L2.26 332.86L2.26 257.86zM67.21 445.36L132.16 482.86L132.16 557.86L67.21 595.36L2.26 557.86L2.26 482.86zM197.12 -4.64L262.07 32.86L262.07 107.86L197.12 145.36L132.16 107.86L132.16 32.86zM521.89 332.86L586.84 370.36L586.84 445.36L521.89 482.86L456.93 445.36L456.93 370.36zM586.84 -4.64L651.79 32.86L651.79 107.86L586.84 145.36L521.89 107.86L521.89 32.86zM651.79 332.86L716.75 370.36L716.75 445.36L651.79 482.86L586.84 445.36L586.84 370.36zM651.79 557.86L716.75 595.36L716.75 670.36L651.79 707.86L586.84 670.36L586.84 595.36zM911.61 557.86L976.56 595.36L976.56 670.36L911.61 707.86L846.65 670.36L846.65 595.36zM976.56 220.36L1041.52 257.86L1041.52 332.86L976.56 370.36L911.61 332.86L911.61 257.86zM1106.47 -4.64L1171.42 32.86L1171.42 107.86L1106.47 145.36L1041.52 107.86L1041.52 32.86zM1106.47 220.36L1171.42 257.86L1171.42 332.86L1106.47 370.36L1041.52 332.86L1041.52 257.86zM1301.33 557.86L1366.28 595.36L1366.28 670.36L1301.33 707.86L1236.38 670.36L1236.38 595.36z" stroke="#03305d" stroke-width="2"></path><path d="M124.66 107.86 a7.5 7.5 0 1 0 15 0 a7.5 7.5 0 1 0 -15 0zM189.62 145.36 a7.5 7.5 0 1 0 15 0 a7.5 7.5 0 1 0 -15 0zM189.62 220.36 a7.5 7.5 0 1 0 15 0 a7.5 7.5 0 1 0 -15 0zM124.66 257.86 a7.5 7.5 0 1 0 15 0 a7.5 7.5 0 1 0 -15 0zM59.71 220.36 a7.5 7.5 0 1 0 15 0 a7.5 7.5 0 1 0 -15 0zM59.71 145.36 a7.5 7.5 0 1 0 15 0 a7.5 7.5 0 1 0 -15 0zM124.66 332.86 a7.5 7.5 0 1 0 15 0 a7.5 7.5 0 1 0 -15 0zM59.71 370.36 a7.5 7.5 0 1 0 15 0 a7.5 7.5 0 1 0 -15 0zM-5.24 332.86 a7.5 7.5 0 1 0 15 0 a7.5 7.5 0 1 0 -15 0zM-5.24 257.86 a7.5 7.5 0 1 0 15 0 a7.5 7.5 0 1 0 -15 0zM59.71 445.36 a7.5 7.5 0 1 0 15 0 a7.5 7.5 0 1 0 -15 0zM124.66 482.86 a7.5 7.5 0 1 0 15 0 a7.5 7.5 0 1 0 -15 0zM124.66 557.86 a7.5 7.5 0 1 0 15 0 a7.5 7.5 0 1 0 -15 0zM59.71 595.36 a7.5 7.5 0 1 0 15 0 a7.5 7.5 0 1 0 -15 0zM-5.24 557.86 a7.5 7.5 0 1 0 15 0 a7.5 7.5 0 1 0 -15 0zM-5.24 482.86 a7.5 7.5 0 1 0 15 0 a7.5 7.5 0 1 0 -15 0zM189.62 -4.64 a7.5 7.5 0 1 0 15 0 a7.5 7.5 0 1 0 -15 0zM254.57 32.86 a7.5 7.5 0 1 0 15 0 a7.5 7.5 0 1 0 -15 0zM254.57 107.86 a7.5 7.5 0 1 0 15 0 a7.5 7.5 0 1 0 -15 0zM124.66 32.86 a7.5 7.5 0 1 0 15 0 a7.5 7.5 0 1 0 -15 0zM514.39 332.86 a7.5 7.5 0 1 0 15 0 a7.5 7.5 0 1 0 -15 0zM579.34 370.36 a7.5 7.5 0 1 0 15 0 a7.5 7.5 0 1 0 -15 0zM579.34 445.36 a7.5 7.5 0 1 0 15 0 a7.5 7.5 0 1 0 -15 0zM514.39 482.86 a7.5 7.5 0 1 0 15 0 a7.5 7.5 0 1 0 -15 0zM449.43 445.36 a7.5 7.5 0 1 0 15 0 a7.5 7.5 0 1 0 -15 0zM449.43 370.36 a7.5 7.5 0 1 0 15 0 a7.5 7.5 0 1 0 -15 0zM579.34 -4.64 a7.5 7.5 0 1 0 15 0 a7.5 7.5 0 1 0 -15 0zM644.29 32.86 a7.5 7.5 0 1 0 15 0 a7.5 7.5 0 1 0 -15 0zM644.29 107.86 a7.5 7.5 0 1 0 15 0 a7.5 7.5 0 1 0 -15 0zM579.34 145.36 a7.5 7.5 0 1 0 15 0 a7.5 7.5 0 1 0 -15 0zM514.39 107.86 a7.5 7.5 0 1 0 15 0 a7.5 7.5 0 1 0 -15 0zM514.39 32.86 a7.5 7.5 0 1 0 15 0 a7.5 7.5 0 1 0 -15 0zM644.29 332.86 a7.5 7.5 0 1 0 15 0 a7.5 7.5 0 1 0 -15 0zM709.25 370.36 a7.5 7.5 0 1 0 15 0 a7.5 7.5 0 1 0 -15 0zM709.25 445.36 a7.5 7.5 0 1 0 15 0 a7.5 7.5 0 1 0 -15 0zM644.29 482.86 a7.5 7.5 0 1 0 15 0 a7.5 7.5 0 1 0 -15 0zM644.29 557.86 a7.5 7.5 0 1 0 15 0 a7.5 7.5 0 1 0 -15 0zM709.25 595.36 a7.5 7.5 0 1 0 15 0 a7.5 7.5 0 1 0 -15 0zM709.25 670.36 a7.5 7.5 0 1 0 15 0 a7.5 7.5 0 1 0 -15 0zM644.29 707.86 a7.5 7.5 0 1 0 15 0 a7.5 7.5 0 1 0 -15 0zM579.34 670.36 a7.5 7.5 0 1 0 15 0 a7.5 7.5 0 1 0 -15 0zM579.34 595.36 a7.5 7.5 0 1 0 15 0 a7.5 7.5 0 1 0 -15 0zM904.11 557.86 a7.5 7.5 0 1 0 15 0 a7.5 7.5 0 1 0 -15 0zM969.06 595.36 a7.5 7.5 0 1 0 15 0 a7.5 7.5 0 1 0 -15 0zM969.06 670.36 a7.5 7.5 0 1 0 15 0 a7.5 7.5 0 1 0 -15 0zM904.11 707.86 a7.5 7.5 0 1 0 15 0 a7.5 7.5 0 1 0 -15 0zM839.15 670.36 a7.5 7.5 0 1 0 15 0 a7.5 7.5 0 1 0 -15 0zM839.15 595.36 a7.5 7.5 0 1 0 15 0 a7.5 7.5 0 1 0 -15 0zM969.06 220.36 a7.5 7.5 0 1 0 15 0 a7.5 7.5 0 1 0 -15 0zM1034.02 257.86 a7.5 7.5 0 1 0 15 0 a7.5 7.5 0 1 0 -15 0zM1034.02 332.86 a7.5 7.5 0 1 0 15 0 a7.5 7.5 0 1 0 -15 0zM969.06 370.36 a7.5 7.5 0 1 0 15 0 a7.5 7.5 0 1 0 -15 0zM904.11 332.86 a7.5 7.5 0 1 0 15 0 a7.5 7.5 0 1 0 -15 0zM904.11 257.86 a7.5 7.5 0 1 0 15 0 a7.5 7.5 0 1 0 -15 0zM1098.97 -4.64 a7.5 7.5 0 1 0 15 0 a7.5 7.5 0 1 0 -15 0zM1163.92 32.86 a7.5 7.5 0 1 0 15 0 a7.5 7.5 0 1 0 -15 0zM1163.92 107.86 a7.5 7.5 0 1 0 15 0 a7.5 7.5 0 1 0 -15 0zM1098.97 145.36 a7.5 7.5 0 1 0 15 0 a7.5 7.5 0 1 0 -15 0zM1034.02 107.86 a7.5 7.5 0 1 0 15 0 a7.5 7.5 0 1 0 -15 0zM1034.02 32.86 a7.5 7.5 0 1 0 15 0 a7.5 7.5 0 1 0 -15 0zM1098.97 220.36 a7.5 7.5 0 1 0 15 0 a7.5 7.5 0 1 0 -15 0zM1163.92 257.86 a7.5 7.5 0 1 0 15 0 a7.5 7.5 0 1 0 -15 0zM1163.92 332.86 a7.5 7.5 0 1 0 15 0 a7.5 7.5 0 1 0 -15 0zM1098.97 370.36 a7.5 7.5 0 1 0 15 0 a7.5 7.5 0 1 0 -15 0zM1293.83 557.86 a7.5 7.5 0 1 0 15 0 a7.5 7.5 0 1 0 -15 0zM1358.78 595.36 a7.5 7.5 0 1 0 15 0 a7.5 7.5 0 1 0 -15 0zM1358.78 670.36 a7.5 7.5 0 1 0 15 0 a7.5 7.5 0 1 0 -15 0zM1293.83 707.86 a7.5 7.5 0 1 0 15 0 a7.5 7.5 0 1 0 -15 0zM1228.88 670.36 a7.5 7.5 0 1 0 15 0 a7.5 7.5 0 1 0 -15 0zM1228.88 595.36 a7.5 7.5 0 1 0 15 0 a7.5 7.5 0 1 0 -15 0z" fill="#03305d"></path><path d="M51.26 176.76L94.56 201.76L94.56 251.76L51.26 276.76L7.96 251.76L7.96 201.76zM94.56 101.76L137.87 126.76L137.87 176.76L94.56 201.76L51.26 176.76L51.26 126.76zM137.87 326.76L181.17 351.76L181.17 401.76L137.87 426.76L94.56 401.76L94.56 351.76zM224.47 476.76L267.77 501.76L267.77 551.76L224.47 576.76L181.17 551.76L181.17 501.76zM311.08 176.76L354.38 201.76L354.38 251.76L311.08 276.76L267.77 251.76L267.77 201.76zM397.68 26.76L440.99 51.76L440.99 101.76L397.68 126.76L354.38 101.76L354.38 51.76zM354.38 101.76L397.68 126.76L397.68 176.76L354.38 201.76L311.08 176.76L311.08 126.76zM354.38 251.76L397.68 276.76L397.68 326.76L354.38 351.76L311.08 326.76L311.08 276.76zM484.29 26.76L527.59 51.76L527.59 101.76L484.29 126.76L440.99 101.76L440.99 51.76zM527.59 -48.24L570.89 -23.24L570.89 26.76L527.59 51.76L484.29 26.76L484.29 -23.24zM570.89 326.76L614.2 351.76L614.2 401.76L570.89 426.76L527.59 401.76L527.59 351.76zM614.2 -48.24L657.5 -23.24L657.5 26.76L614.2 51.76L570.89 26.76L570.89 -23.24zM657.5 326.76L700.8 351.76L700.8 401.76L657.5 426.76L614.2 401.76L614.2 351.76zM700.8 -48.24L744.1 -23.24L744.1 26.76L700.8 51.76L657.5 26.76L657.5 -23.24zM744.1 26.76L787.41 51.76L787.41 101.76L744.1 126.76L700.8 101.76L700.8 51.76zM744.1 176.76L787.41 201.76L787.41 251.76L744.1 276.76L700.8 251.76L700.8 201.76zM700.8 401.76L744.1 426.76L744.1 476.76L700.8 501.76L657.5 476.76L657.5 426.76zM787.41 -48.24L830.71 -23.24L830.71 26.76L787.41 51.76L744.1 26.76L744.1 -23.24zM830.71 176.76L874.01 201.76L874.01 251.76L830.71 276.76L787.41 251.76L787.41 201.76zM830.71 476.76L874.01 501.76L874.01 551.76L830.71 576.76L787.41 551.76L787.41 501.76zM917.31 176.76L960.62 201.76L960.62 251.76L917.31 276.76L874.01 251.76L874.01 201.76zM1003.92 26.76L1047.22 51.76L1047.22 101.76L1003.92 126.76L960.62 101.76L960.62 51.76zM960.62 401.76L1003.92 426.76L1003.92 476.76L960.62 501.76L917.31 476.76L917.31 426.76zM1003.92 476.76L1047.22 501.76L1047.22 551.76L1003.92 576.76L960.62 551.76L960.62 501.76zM1047.22 -48.24L1090.52 -23.24L1090.52 26.76L1047.22 51.76L1003.92 26.76L1003.92 -23.24zM1047.22 251.76L1090.52 276.76L1090.52 326.76L1047.22 351.76L1003.92 326.76L1003.92 276.76zM1177.13 176.76L1220.43 201.76L1220.43 251.76L1177.13 276.76L1133.83 251.76L1133.83 201.76zM1263.73 476.76L1307.04 501.76L1307.04 551.76L1263.73 576.76L1220.43 551.76L1220.43 501.76zM1350.34 326.76L1393.64 351.76L1393.64 401.76L1350.34 426.76L1307.04 401.76L1307.04 351.76zM1307.04 401.76L1350.34 426.76L1350.34 476.76L1307.04 501.76L1263.73 476.76L1263.73 426.76zM1393.64 101.76L1436.94 126.76L1436.94 176.76L1393.64 201.76L1350.34 176.76L1350.34 126.76z" stroke="rgba(6, 80, 156, 0.93)" stroke-width="2"></path></g><defs><mask id="SvgjsMask1002"><rect width="1440" height="560" fill="#ffffff"></rect></mask></defs></svg>