<svg xmlns="http://www.w3.org/2000/svg" version="1.1" xmlns:xlink="http://www.w3.org/1999/xlink" xmlns:svgjs="http://svgjs.dev/svgjs" width="1440" height="560" preserveAspectRatio="none" viewBox="0 0 1440 560"><g mask="url(&quot;#SvgjsMask1000&quot;)" fill="none"><rect width="1440" height="560" x="0" y="0" fill="#0e2a47"></rect><path d="M-97.79 411.89L-97.79 411.89" stroke="#132e65" stroke-width="1.5"></path><path d="M-97.79 411.89L-72.2 491.11" stroke="#132e65" stroke-width="1.5"></path><path d="M-97.79 411.89L88.18 495.21" stroke="#132e65" stroke-width="1.5"></path><path d="M-72.2 491.11L-72.2 491.11" stroke="#132e65" stroke-width="1.5"></path><path d="M-72.2 491.11L88.18 495.21" stroke="#132e65" stroke-width="1.5"></path><path d="M-72.2 491.11L-102.78 702.98" stroke="#132e65" stroke-width="1.5"></path><path d="M-72.2 491.11L43.62 678.82" stroke="#132e65" stroke-width="1.5"></path><path d="M-72.2 491.11L227.38 396.26" stroke="#132e65" stroke-width="1.5"></path><path d="M-102.78 702.98L-102.78 702.98" stroke="#132e65" stroke-width="1.5"></path><path d="M-102.78 702.98L43.62 678.82" stroke="#132e65" stroke-width="1.5"></path><path d="M-102.78 702.98L88.18 495.21" stroke="#132e65" stroke-width="1.5"></path><path d="M88.18 495.21L88.18 495.21" stroke="#132e65" stroke-width="1.5"></path><path d="M88.18 495.21L247.4 527.38" stroke="#132e65" stroke-width="1.5"></path><path d="M88.18 495.21L227.38 396.26" stroke="#132e65" stroke-width="1.5"></path><path d="M88.18 495.21L43.62 678.82" stroke="#132e65" stroke-width="1.5"></path><path d="M43.62 678.82L43.62 678.82" stroke="#132e65" stroke-width="1.5"></path><path d="M43.62 678.82L262.17 686.39" stroke="#132e65" stroke-width="1.5"></path><path d="M227.38 396.26L227.38 396.26" stroke="#132e65" stroke-width="1.5"></path><path d="M227.38 396.26L247.4 527.38" stroke="#132e65" stroke-width="1.5"></path><path d="M227.38 396.26L400.32 408.56" stroke="#132e65" stroke-width="1.5"></path><path d="M247.4 527.38L247.4 527.38" stroke="#132e65" stroke-width="1.5"></path><path d="M247.4 527.38L341.11 537.88" stroke="#132e65" stroke-width="1.5"></path><path d="M247.4 527.38L262.17 686.39" stroke="#132e65" stroke-width="1.5"></path><path d="M247.4 527.38L400.32 408.56" stroke="#132e65" stroke-width="1.5"></path><path d="M247.4 527.38L411.81 706.01" stroke="#132e65" stroke-width="1.5"></path><path d="M262.17 686.39L262.17 686.39" stroke="#132e65" stroke-width="1.5"></path><path d="M262.17 686.39L411.81 706.01" stroke="#132e65" stroke-width="1.5"></path><path d="M262.17 686.39L341.11 537.88" stroke="#132e65" stroke-width="1.5"></path><path d="M400.32 408.56L400.32 408.56" stroke="#132e65" stroke-width="1.5"></path><path d="M400.32 408.56L501.12 402.57" stroke="#132e65" stroke-width="1.5"></path><path d="M400.32 408.56L341.11 537.88" stroke="#132e65" stroke-width="1.5"></path><path d="M341.11 537.88L341.11 537.88" stroke="#132e65" stroke-width="1.5"></path><path d="M341.11 537.88L519.85 555.14" stroke="#132e65" stroke-width="1.5"></path><path d="M341.11 537.88L227.38 396.26" stroke="#132e65" stroke-width="1.5"></path><path d="M411.81 706.01L411.81 706.01" stroke="#132e65" stroke-width="1.5"></path><path d="M411.81 706.01L514.57 708.63" stroke="#132e65" stroke-width="1.5"></path><path d="M411.81 706.01L341.11 537.88" stroke="#132e65" stroke-width="1.5"></path><path d="M411.81 706.01L519.85 555.14" stroke="#132e65" stroke-width="1.5"></path><path d="M411.81 706.01L667.38 649.59" stroke="#132e65" stroke-width="1.5"></path><path d="M501.12 402.57L501.12 402.57" stroke="#132e65" stroke-width="1.5"></path><path d="M501.12 402.57L519.85 555.14" stroke="#132e65" stroke-width="1.5"></path><path d="M519.85 555.14L519.85 555.14" stroke="#132e65" stroke-width="1.5"></path><path d="M519.85 555.14L514.57 708.63" stroke="#132e65" stroke-width="1.5"></path><path d="M519.85 555.14L667.38 649.59" stroke="#132e65" stroke-width="1.5"></path><path d="M514.57 708.63L514.57 708.63" stroke="#132e65" stroke-width="1.5"></path><path d="M514.57 708.63L667.38 649.59" stroke="#132e65" stroke-width="1.5"></path><path d="M661.07 249.98L661.07 249.98" stroke="#132e65" stroke-width="1.5"></path><path d="M661.07 249.98L662.2 341.79" stroke="#132e65" stroke-width="1.5"></path><path d="M661.07 249.98L816.07 342.54" stroke="#132e65" stroke-width="1.5"></path><path d="M661.07 249.98L854.02 243.32" stroke="#132e65" stroke-width="1.5"></path><path d="M661.07 249.98L501.12 402.57" stroke="#132e65" stroke-width="1.5"></path><path d="M662.2 341.79L662.2 341.79" stroke="#132e65" stroke-width="1.5"></path><path d="M662.2 341.79L816.07 342.54" stroke="#132e65" stroke-width="1.5"></path><path d="M662.2 341.79L501.12 402.57" stroke="#132e65" stroke-width="1.5"></path><path d="M667.38 649.59L667.38 649.59" stroke="#132e65" stroke-width="1.5"></path><path d="M667.38 649.59L821.99 691.68" stroke="#132e65" stroke-width="1.5"></path><path d="M667.38 649.59L839.19 502.39" stroke="#132e65" stroke-width="1.5"></path><path d="M854.02 243.32L854.02 243.32" stroke="#132e65" stroke-width="1.5"></path><path d="M854.02 243.32L939.65 200.8" stroke="#132e65" stroke-width="1.5"></path><path d="M854.02 243.32L816.07 342.54" stroke="#132e65" stroke-width="1.5"></path><path d="M854.02 243.32L993.6 355.3" stroke="#132e65" stroke-width="1.5"></path><path d="M816.07 342.54L816.07 342.54" stroke="#132e65" stroke-width="1.5"></path><path d="M839.19 502.39L839.19 502.39" stroke="#132e65" stroke-width="1.5"></path><path d="M839.19 502.39L940.39 491.14" stroke="#132e65" stroke-width="1.5"></path><path d="M839.19 502.39L816.07 342.54" stroke="#132e65" stroke-width="1.5"></path><path d="M821.99 691.68L821.99 691.68" stroke="#132e65" stroke-width="1.5"></path><path d="M821.99 691.68L1008.93 661.24" stroke="#132e65" stroke-width="1.5"></path><path d="M821.99 691.68L839.19 502.39" stroke="#132e65" stroke-width="1.5"></path><path d="M821.99 691.68L940.39 491.14" stroke="#132e65" stroke-width="1.5"></path><path d="M987.21 -56.91L987.21 -56.91" stroke="#132e65" stroke-width="1.5"></path><path d="M987.21 -56.91L986.79 80.56" stroke="#132e65" stroke-width="1.5"></path><path d="M987.21 -56.91L1135.03 -111.1" stroke="#132e65" stroke-width="1.5"></path><path d="M986.79 80.56L986.79 80.56" stroke="#132e65" stroke-width="1.5"></path><path d="M986.79 80.56L939.65 200.8" stroke="#132e65" stroke-width="1.5"></path><path d="M939.65 200.8L939.65 200.8" stroke="#132e65" stroke-width="1.5"></path><path d="M939.65 200.8L993.6 355.3" stroke="#132e65" stroke-width="1.5"></path><path d="M939.65 200.8L816.07 342.54" stroke="#132e65" stroke-width="1.5"></path><path d="M993.6 355.3L993.6 355.3" stroke="#132e65" stroke-width="1.5"></path><path d="M993.6 355.3L1129.72 376.95" stroke="#132e65" stroke-width="1.5"></path><path d="M993.6 355.3L940.39 491.14" stroke="#132e65" stroke-width="1.5"></path><path d="M993.6 355.3L816.07 342.54" stroke="#132e65" stroke-width="1.5"></path><path d="M940.39 491.14L940.39 491.14" stroke="#132e65" stroke-width="1.5"></path><path d="M940.39 491.14L1098.56 506.6" stroke="#132e65" stroke-width="1.5"></path><path d="M940.39 491.14L1008.93 661.24" stroke="#132e65" stroke-width="1.5"></path><path d="M1008.93 661.24L1008.93 661.24" stroke="#132e65" stroke-width="1.5"></path><path d="M1008.93 661.24L1108.57 705.16" stroke="#132e65" stroke-width="1.5"></path><path d="M1008.93 661.24L1098.56 506.6" stroke="#132e65" stroke-width="1.5"></path><path d="M1135.03 -111.1L1135.03 -111.1" stroke="#132e65" stroke-width="1.5"></path><path d="M1135.03 -111.1L1255.74 -92.42" stroke="#132e65" stroke-width="1.5"></path><path d="M1135.03 -111.1L1127.95 78.95" stroke="#132e65" stroke-width="1.5"></path><path d="M1135.03 -111.1L1295.21 64.36" stroke="#132e65" stroke-width="1.5"></path><path d="M1135.03 -111.1L986.79 80.56" stroke="#132e65" stroke-width="1.5"></path><path d="M1135.03 -111.1L1154.33 201.9" stroke="#132e65" stroke-width="1.5"></path><path d="M1127.95 78.95L1127.95 78.95" stroke="#132e65" stroke-width="1.5"></path><path d="M1127.95 78.95L1154.33 201.9" stroke="#132e65" stroke-width="1.5"></path><path d="M1127.95 78.95L986.79 80.56" stroke="#132e65" stroke-width="1.5"></path><path d="M1127.95 78.95L1295.21 64.36" stroke="#132e65" stroke-width="1.5"></path><path d="M1154.33 201.9L1154.33 201.9" stroke="#132e65" stroke-width="1.5"></path><path d="M1154.33 201.9L1302.97 202.96" stroke="#132e65" stroke-width="1.5"></path><path d="M1154.33 201.9L1129.72 376.95" stroke="#132e65" stroke-width="1.5"></path><path d="M1154.33 201.9L1295.21 64.36" stroke="#132e65" stroke-width="1.5"></path><path d="M1154.33 201.9L986.79 80.56" stroke="#132e65" stroke-width="1.5"></path><path d="M1129.72 376.95L1129.72 376.95" stroke="#132e65" stroke-width="1.5"></path><path d="M1129.72 376.95L1098.56 506.6" stroke="#132e65" stroke-width="1.5"></path><path d="M1129.72 376.95L1307.46 366.63" stroke="#132e65" stroke-width="1.5"></path><path d="M1129.72 376.95L1250.9 553.94" stroke="#132e65" stroke-width="1.5"></path><path d="M1098.56 506.6L1098.56 506.6" stroke="#132e65" stroke-width="1.5"></path><path d="M1098.56 506.6L1250.9 553.94" stroke="#132e65" stroke-width="1.5"></path><path d="M1098.56 506.6L993.6 355.3" stroke="#132e65" stroke-width="1.5"></path><path d="M1098.56 506.6L1108.57 705.16" stroke="#132e65" stroke-width="1.5"></path><path d="M1108.57 705.16L1108.57 705.16" stroke="#132e65" stroke-width="1.5"></path><path d="M1108.57 705.16L1239.17 688.87" stroke="#132e65" stroke-width="1.5"></path><path d="M1108.57 705.16L1250.9 553.94" stroke="#132e65" stroke-width="1.5"></path><path d="M1255.74 -92.42L1255.74 -92.42" stroke="#132e65" stroke-width="1.5"></path><path d="M1255.74 -92.42L1295.21 64.36" stroke="#132e65" stroke-width="1.5"></path><path d="M1255.74 -92.42L1127.95 78.95" stroke="#132e65" stroke-width="1.5"></path><path d="M1255.74 -92.42L1423.13 42.14" stroke="#132e65" stroke-width="1.5"></path><path d="M1295.21 64.36L1295.21 64.36" stroke="#132e65" stroke-width="1.5"></path><path d="M1295.21 64.36L1423.13 42.14" stroke="#132e65" stroke-width="1.5"></path><path d="M1295.21 64.36L1302.97 202.96" stroke="#132e65" stroke-width="1.5"></path><path d="M1302.97 202.96L1302.97 202.96" stroke="#132e65" stroke-width="1.5"></path><path d="M1302.97 202.96L1307.46 366.63" stroke="#132e65" stroke-width="1.5"></path><path d="M1302.97 202.96L1460.41 248.06" stroke="#132e65" stroke-width="1.5"></path><path d="M1302.97 202.96L1423.13 42.14" stroke="#132e65" stroke-width="1.5"></path><path d="M1307.46 366.63L1307.46 366.63" stroke="#132e65" stroke-width="1.5"></path><path d="M1307.46 366.63L1455.12 404.91" stroke="#132e65" stroke-width="1.5"></path><path d="M1250.9 553.94L1250.9 553.94" stroke="#132e65" stroke-width="1.5"></path><path d="M1250.9 553.94L1239.17 688.87" stroke="#132e65" stroke-width="1.5"></path><path d="M1239.17 688.87L1239.17 688.87" stroke="#132e65" stroke-width="1.5"></path><path d="M1239.17 688.87L1443.6 670.36" stroke="#132e65" stroke-width="1.5"></path><path d="M1239.17 688.87L1098.56 506.6" stroke="#132e65" stroke-width="1.5"></path><path d="M1239.17 688.87L1008.93 661.24" stroke="#132e65" stroke-width="1.5"></path><path d="M1423.13 42.14L1423.13 42.14" stroke="#132e65" stroke-width="1.5"></path><path d="M1423.13 42.14L1602.9 81.37" stroke="#132e65" stroke-width="1.5"></path><path d="M1423.13 42.14L1578.5 -76.17" stroke="#132e65" stroke-width="1.5"></path><path d="M1423.13 42.14L1460.41 248.06" stroke="#132e65" stroke-width="1.5"></path><path d="M1460.41 248.06L1460.41 248.06" stroke="#132e65" stroke-width="1.5"></path><path d="M1460.41 248.06L1578.78 260.09" stroke="#132e65" stroke-width="1.5"></path><path d="M1460.41 248.06L1455.12 404.91" stroke="#132e65" stroke-width="1.5"></path><path d="M1455.12 404.91L1455.12 404.91" stroke="#132e65" stroke-width="1.5"></path><path d="M1455.12 404.91L1416.3 535.75" stroke="#132e65" stroke-width="1.5"></path><path d="M1455.12 404.91L1588.93 355.61" stroke="#132e65" stroke-width="1.5"></path><path d="M1416.3 535.75L1416.3 535.75" stroke="#132e65" stroke-width="1.5"></path><path d="M1416.3 535.75L1443.6 670.36" stroke="#132e65" stroke-width="1.5"></path><path d="M1443.6 670.36L1443.6 670.36" stroke="#132e65" stroke-width="1.5"></path><path d="M1443.6 670.36L1560.25 701.66" stroke="#132e65" stroke-width="1.5"></path><path d="M1443.6 670.36L1572.07 559.9" stroke="#132e65" stroke-width="1.5"></path><path d="M1578.5 -76.17L1578.5 -76.17" stroke="#132e65" stroke-width="1.5"></path><path d="M1578.5 -76.17L1602.9 81.37" stroke="#132e65" stroke-width="1.5"></path><path d="M1578.5 -76.17L1295.21 64.36" stroke="#132e65" stroke-width="1.5"></path><path d="M1602.9 81.37L1602.9 81.37" stroke="#132e65" stroke-width="1.5"></path><path d="M1602.9 81.37L1578.78 260.09" stroke="#132e65" stroke-width="1.5"></path><path d="M1602.9 81.37L1460.41 248.06" stroke="#132e65" stroke-width="1.5"></path><path d="M1602.9 81.37L1588.93 355.61" stroke="#132e65" stroke-width="1.5"></path><path d="M1602.9 81.37L1295.21 64.36" stroke="#132e65" stroke-width="1.5"></path><path d="M1578.78 260.09L1578.78 260.09" stroke="#132e65" stroke-width="1.5"></path><path d="M1578.78 260.09L1588.93 355.61" stroke="#132e65" stroke-width="1.5"></path><path d="M1588.93 355.61L1588.93 355.61" stroke="#132e65" stroke-width="1.5"></path><path d="M1588.93 355.61L1460.41 248.06" stroke="#132e65" stroke-width="1.5"></path><path d="M1572.07 559.9L1572.07 559.9" stroke="#132e65" stroke-width="1.5"></path><path d="M1572.07 559.9L1560.25 701.66" stroke="#132e65" stroke-width="1.5"></path><path d="M1572.07 559.9L1416.3 535.75" stroke="#132e65" stroke-width="1.5"></path><path d="M1572.07 559.9L1455.12 404.91" stroke="#132e65" stroke-width="1.5"></path><path d="M1560.25 701.66L1560.25 701.66" stroke="#132e65" stroke-width="1.5"></path><path d="M1560.25 701.66L1416.3 535.75" stroke="#132e65" stroke-width="1.5"></path><path d="M1560.25 701.66L1455.12 404.91" stroke="#132e65" stroke-width="1.5"></path><circle r="5" cx="-97.79" cy="411.89" fill="#132e65"></circle><circle r="5" cx="-72.2" cy="491.11" fill="#132e65"></circle><circle r="5" cx="-102.78" cy="702.98" fill="#132e65"></circle><circle r="5" cx="88.18" cy="495.21" fill="#132e65"></circle><circle r="5" cx="43.62" cy="678.82" fill="#132e65"></circle><circle r="5" cx="227.38" cy="396.26" fill="#132e65"></circle><circle r="5" cx="247.4" cy="527.38" fill="#132e65"></circle><circle r="5" cx="262.17" cy="686.39" fill="#132e65"></circle><circle r="5" cx="400.32" cy="408.56" fill="#132e65"></circle><circle r="5" cx="341.11" cy="537.88" fill="#132e65"></circle><circle r="5" cx="411.81" cy="706.01" fill="#132e65"></circle><circle r="5" cx="501.12" cy="402.57" fill="#132e65"></circle><circle r="5" cx="519.85" cy="555.14" fill="#132e65"></circle><circle r="5" cx="514.57" cy="708.63" fill="#132e65"></circle><circle r="5" cx="661.07" cy="249.98" fill="#132e65"></circle><circle r="5" cx="662.2" cy="341.79" fill="#132e65"></circle><circle r="5" cx="667.38" cy="649.59" fill="#132e65"></circle><circle r="5" cx="854.02" cy="243.32" fill="#132e65"></circle><circle r="5" cx="816.07" cy="342.54" fill="#132e65"></circle><circle r="5" cx="839.19" cy="502.39" fill="#132e65"></circle><circle r="5" cx="821.99" cy="691.68" fill="#132e65"></circle><circle r="5" cx="987.21" cy="-56.91" fill="#132e65"></circle><circle r="5" cx="986.79" cy="80.56" fill="#132e65"></circle><circle r="5" cx="939.65" cy="200.8" fill="#132e65"></circle><circle r="5" cx="993.6" cy="355.3" fill="#132e65"></circle><circle r="5" cx="940.39" cy="491.14" fill="#132e65"></circle><circle r="5" cx="1008.93" cy="661.24" fill="#132e65"></circle><circle r="5" cx="1135.03" cy="-111.1" fill="#132e65"></circle><circle r="5" cx="1127.95" cy="78.95" fill="#132e65"></circle><circle r="5" cx="1154.33" cy="201.9" fill="#132e65"></circle><circle r="5" cx="1129.72" cy="376.95" fill="#132e65"></circle><circle r="5" cx="1098.56" cy="506.6" fill="#132e65"></circle><circle r="5" cx="1108.57" cy="705.16" fill="#132e65"></circle><circle r="5" cx="1255.74" cy="-92.42" fill="#132e65"></circle><circle r="5" cx="1295.21" cy="64.36" fill="#132e65"></circle><circle r="5" cx="1302.97" cy="202.96" fill="#132e65"></circle><circle r="5" cx="1307.46" cy="366.63" fill="#132e65"></circle><circle r="5" cx="1250.9" cy="553.94" fill="#132e65"></circle><circle r="5" cx="1239.17" cy="688.87" fill="#132e65"></circle><circle r="5" cx="1423.13" cy="42.14" fill="#132e65"></circle><circle r="5" cx="1460.41" cy="248.06" fill="#132e65"></circle><circle r="5" cx="1455.12" cy="404.91" fill="#132e65"></circle><circle r="5" cx="1416.3" cy="535.75" fill="#132e65"></circle><circle r="5" cx="1443.6" cy="670.36" fill="#132e65"></circle><circle r="5" cx="1578.5" cy="-76.17" fill="#132e65"></circle><circle r="5" cx="1602.9" cy="81.37" fill="#132e65"></circle><circle r="5" cx="1578.78" cy="260.09" fill="#132e65"></circle><circle r="5" cx="1588.93" cy="355.61" fill="#132e65"></circle><circle r="5" cx="1572.07" cy="559.9" fill="#132e65"></circle><circle r="5" cx="1560.25" cy="701.66" fill="#132e65"></circle><path d="M39.58 647.79L39.58 647.79" stroke="hsl(228.5, 77.2%, 51.5%)" stroke-width="1.5"></path><path d="M39.58 647.79L75.98 504.56" stroke="hsl(228.5, 77.2%, 51.5%)" stroke-width="1.5"></path><path d="M39.58 647.79L-110.5 651.26" stroke="hsl(228.5, 77.2%, 51.5%)" stroke-width="1.5"></path><path d="M39.58 647.79L-39.49 488.01" stroke="hsl(228.5, 77.2%, 51.5%)" stroke-width="1.5"></path><path d="M39.58 647.79L254.34 650.4" stroke="hsl(228.5, 77.2%, 51.5%)" stroke-width="1.5"></path><path d="M39.58 647.79L225.43 519.92" stroke="hsl(228.5, 77.2%, 51.5%)" stroke-width="1.5"></path><path d="M708.92 660.05L708.92 660.05" stroke="hsl(228.5, 77.2%, 51.5%)" stroke-width="1.5"></path><path d="M708.92 660.05L685.88 555.53" stroke="hsl(228.5, 77.2%, 51.5%)" stroke-width="1.5"></path><path d="M708.92 660.05L834.87 685.43" stroke="hsl(228.5, 77.2%, 51.5%)" stroke-width="1.5"></path><path d="M708.92 660.05L537.41 699.49" stroke="hsl(228.5, 77.2%, 51.5%)" stroke-width="1.5"></path><path d="M708.92 660.05L524.96 554.54" stroke="hsl(228.5, 77.2%, 51.5%)" stroke-width="1.5"></path><path d="M708.92 660.05L854.43 495.83" stroke="hsl(228.5, 77.2%, 51.5%)" stroke-width="1.5"></path><path d="M996.35 233.1L996.35 233.1" stroke="hsl(228.5, 77.2%, 51.5%)" stroke-width="1.5"></path><path d="M996.35 233.1L1011.81 370.53" stroke="hsl(228.5, 77.2%, 51.5%)" stroke-width="1.5"></path><path d="M996.35 233.1L1151.03 241.71" stroke="hsl(228.5, 77.2%, 51.5%)" stroke-width="1.5"></path><path d="M996.35 233.1L1145.15 408.54" stroke="hsl(228.5, 77.2%, 51.5%)" stroke-width="1.5"></path><path d="M996.35 233.1L830.76 397.46" stroke="hsl(228.5, 77.2%, 51.5%)" stroke-width="1.5"></path><path d="M1151.03 241.71L1151.03 241.71" stroke="hsl(228.5, 77.2%, 51.5%)" stroke-width="1.5"></path><path d="M1151.03 241.71L1273.7 209.05" stroke="hsl(228.5, 77.2%, 51.5%)" stroke-width="1.5"></path><path d="M1289.25 488.74L1289.25 488.74" stroke="hsl(228.5, 77.2%, 51.5%)" stroke-width="1.5"></path><path d="M1289.25 488.74L1309.3 403.19" stroke="hsl(228.5, 77.2%, 51.5%)" stroke-width="1.5"></path><path d="M1289.25 488.74L1401.71 526.01" stroke="hsl(228.5, 77.2%, 51.5%)" stroke-width="1.5"></path><path d="M1607.23 246.62L1607.23 246.62" stroke="hsl(228.5, 77.2%, 51.5%)" stroke-width="1.5"></path><path d="M1607.23 246.62L1592.13 408.32" stroke="hsl(228.5, 77.2%, 51.5%)" stroke-width="1.5"></path><path d="M1607.23 246.62L1410.35 196.87" stroke="hsl(228.5, 77.2%, 51.5%)" stroke-width="1.5"></path><path d="M1607.23 246.62L1545.95 47.4" stroke="hsl(228.5, 77.2%, 51.5%)" stroke-width="1.5"></path><path d="M1604.88 652.83L1604.88 652.83" stroke="hsl(228.5, 77.2%, 51.5%)" stroke-width="1.5"></path><path d="M1604.88 652.83L1600.75 527.77" stroke="hsl(228.5, 77.2%, 51.5%)" stroke-width="1.5"></path><path d="M1604.88 652.83L1435.01 688.45" stroke="hsl(228.5, 77.2%, 51.5%)" stroke-width="1.5"></path><path d="M1604.88 652.83L1401.71 526.01" stroke="hsl(228.5, 77.2%, 51.5%)" stroke-width="1.5"></path><path d="M-39.49 488.01L-39.49 488.01" stroke="hsl(228.5, 77.2%, 51.5%)" stroke-width="1.5"></path><path d="M-39.49 488.01L75.98 504.56" stroke="hsl(228.5, 77.2%, 51.5%)" stroke-width="1.5"></path><path d="M-110.5 651.26L-110.5 651.26" stroke="hsl(228.5, 77.2%, 51.5%)" stroke-width="1.5"></path><path d="M-110.5 651.26L-39.49 488.01" stroke="hsl(228.5, 77.2%, 51.5%)" stroke-width="1.5"></path><path d="M-110.5 651.26L75.98 504.56" stroke="hsl(228.5, 77.2%, 51.5%)" stroke-width="1.5"></path><path d="M75.98 504.56L75.98 504.56" stroke="hsl(228.5, 77.2%, 51.5%)" stroke-width="1.5"></path><path d="M75.98 504.56L225.43 519.92" stroke="hsl(228.5, 77.2%, 51.5%)" stroke-width="1.5"></path><path d="M75.98 504.56L254.34 650.4" stroke="hsl(228.5, 77.2%, 51.5%)" stroke-width="1.5"></path><path d="M75.98 504.56L346.09 650.76" stroke="hsl(228.5, 77.2%, 51.5%)" stroke-width="1.5"></path><path d="M225.43 519.92L225.43 519.92" stroke="hsl(228.5, 77.2%, 51.5%)" stroke-width="1.5"></path><path d="M225.43 519.92L254.34 650.4" stroke="hsl(228.5, 77.2%, 51.5%)" stroke-width="1.5"></path><path d="M225.43 519.92L402.8 516.67" stroke="hsl(228.5, 77.2%, 51.5%)" stroke-width="1.5"></path><path d="M225.43 519.92L346.09 650.76" stroke="hsl(228.5, 77.2%, 51.5%)" stroke-width="1.5"></path><path d="M225.43 519.92L-39.49 488.01" stroke="hsl(228.5, 77.2%, 51.5%)" stroke-width="1.5"></path><path d="M254.34 650.4L254.34 650.4" stroke="hsl(228.5, 77.2%, 51.5%)" stroke-width="1.5"></path><path d="M254.34 650.4L346.09 650.76" stroke="hsl(228.5, 77.2%, 51.5%)" stroke-width="1.5"></path><path d="M402.8 516.67L402.8 516.67" stroke="hsl(228.5, 77.2%, 51.5%)" stroke-width="1.5"></path><path d="M402.8 516.67L524.96 554.54" stroke="hsl(228.5, 77.2%, 51.5%)" stroke-width="1.5"></path><path d="M402.8 516.67L346.09 650.76" stroke="hsl(228.5, 77.2%, 51.5%)" stroke-width="1.5"></path><path d="M402.8 516.67L254.34 650.4" stroke="hsl(228.5, 77.2%, 51.5%)" stroke-width="1.5"></path><path d="M346.09 650.76L346.09 650.76" stroke="hsl(228.5, 77.2%, 51.5%)" stroke-width="1.5"></path><path d="M524.96 554.54L524.96 554.54" stroke="hsl(228.5, 77.2%, 51.5%)" stroke-width="1.5"></path><path d="M524.96 554.54L537.41 699.49" stroke="hsl(228.5, 77.2%, 51.5%)" stroke-width="1.5"></path><path d="M524.96 554.54L685.88 555.53" stroke="hsl(228.5, 77.2%, 51.5%)" stroke-width="1.5"></path><path d="M524.96 554.54L346.09 650.76" stroke="hsl(228.5, 77.2%, 51.5%)" stroke-width="1.5"></path><path d="M524.96 554.54L703.22 363.07" stroke="hsl(228.5, 77.2%, 51.5%)" stroke-width="1.5"></path><path d="M537.41 699.49L537.41 699.49" stroke="hsl(228.5, 77.2%, 51.5%)" stroke-width="1.5"></path><path d="M703.22 363.07L703.22 363.07" stroke="hsl(228.5, 77.2%, 51.5%)" stroke-width="1.5"></path><path d="M703.22 363.07L830.76 397.46" stroke="hsl(228.5, 77.2%, 51.5%)" stroke-width="1.5"></path><path d="M703.22 363.07L685.88 555.53" stroke="hsl(228.5, 77.2%, 51.5%)" stroke-width="1.5"></path><path d="M703.22 363.07L854.43 495.83" stroke="hsl(228.5, 77.2%, 51.5%)" stroke-width="1.5"></path><path d="M703.22 363.07L708.92 660.05" stroke="hsl(228.5, 77.2%, 51.5%)" stroke-width="1.5"></path><path d="M685.88 555.53L685.88 555.53" stroke="hsl(228.5, 77.2%, 51.5%)" stroke-width="1.5"></path><path d="M830.76 397.46L830.76 397.46" stroke="hsl(228.5, 77.2%, 51.5%)" stroke-width="1.5"></path><path d="M830.76 397.46L854.43 495.83" stroke="hsl(228.5, 77.2%, 51.5%)" stroke-width="1.5"></path><path d="M854.43 495.83L854.43 495.83" stroke="hsl(228.5, 77.2%, 51.5%)" stroke-width="1.5"></path><path d="M854.43 495.83L1005.48 516.97" stroke="hsl(228.5, 77.2%, 51.5%)" stroke-width="1.5"></path><path d="M854.43 495.83L685.88 555.53" stroke="hsl(228.5, 77.2%, 51.5%)" stroke-width="1.5"></path><path d="M834.87 685.43L834.87 685.43" stroke="hsl(228.5, 77.2%, 51.5%)" stroke-width="1.5"></path><path d="M834.87 685.43L988.2 692.04" stroke="hsl(228.5, 77.2%, 51.5%)" stroke-width="1.5"></path><path d="M834.87 685.43L854.43 495.83" stroke="hsl(228.5, 77.2%, 51.5%)" stroke-width="1.5"></path><path d="M834.87 685.43L685.88 555.53" stroke="hsl(228.5, 77.2%, 51.5%)" stroke-width="1.5"></path><path d="M1011.81 370.53L1011.81 370.53" stroke="hsl(228.5, 77.2%, 51.5%)" stroke-width="1.5"></path><path d="M1011.81 370.53L1145.15 408.54" stroke="hsl(228.5, 77.2%, 51.5%)" stroke-width="1.5"></path><path d="M1011.81 370.53L1005.48 516.97" stroke="hsl(228.5, 77.2%, 51.5%)" stroke-width="1.5"></path><path d="M1005.48 516.97L1005.48 516.97" stroke="hsl(228.5, 77.2%, 51.5%)" stroke-width="1.5"></path><path d="M1005.48 516.97L1106.65 539.24" stroke="hsl(228.5, 77.2%, 51.5%)" stroke-width="1.5"></path><path d="M1005.48 516.97L988.2 692.04" stroke="hsl(228.5, 77.2%, 51.5%)" stroke-width="1.5"></path><path d="M1005.48 516.97L1145.15 408.54" stroke="hsl(228.5, 77.2%, 51.5%)" stroke-width="1.5"></path><path d="M1005.48 516.97L1131.83 685.78" stroke="hsl(228.5, 77.2%, 51.5%)" stroke-width="1.5"></path><path d="M988.2 692.04L988.2 692.04" stroke="hsl(228.5, 77.2%, 51.5%)" stroke-width="1.5"></path><path d="M988.2 692.04L1131.83 685.78" stroke="hsl(228.5, 77.2%, 51.5%)" stroke-width="1.5"></path><path d="M988.2 692.04L1106.65 539.24" stroke="hsl(228.5, 77.2%, 51.5%)" stroke-width="1.5"></path><path d="M1157.15 -85.71L1157.15 -85.71" stroke="hsl(228.5, 77.2%, 51.5%)" stroke-width="1.5"></path><path d="M1157.15 -85.71L1307.33 -90.27" stroke="hsl(228.5, 77.2%, 51.5%)" stroke-width="1.5"></path><path d="M1157.15 -85.71L1302.42 77.59" stroke="hsl(228.5, 77.2%, 51.5%)" stroke-width="1.5"></path><path d="M1157.15 -85.71L1403.23 -87.41" stroke="hsl(228.5, 77.2%, 51.5%)" stroke-width="1.5"></path><path d="M1157.15 -85.71L1273.7 209.05" stroke="hsl(228.5, 77.2%, 51.5%)" stroke-width="1.5"></path><path d="M1157.15 -85.71L1151.03 241.71" stroke="hsl(228.5, 77.2%, 51.5%)" stroke-width="1.5"></path><path d="M1145.15 408.54L1145.15 408.54" stroke="hsl(228.5, 77.2%, 51.5%)" stroke-width="1.5"></path><path d="M1145.15 408.54L1106.65 539.24" stroke="hsl(228.5, 77.2%, 51.5%)" stroke-width="1.5"></path><path d="M1145.15 408.54L1309.3 403.19" stroke="hsl(228.5, 77.2%, 51.5%)" stroke-width="1.5"></path><path d="M1145.15 408.54L1289.25 488.74" stroke="hsl(228.5, 77.2%, 51.5%)" stroke-width="1.5"></path><path d="M1145.15 408.54L1151.03 241.71" stroke="hsl(228.5, 77.2%, 51.5%)" stroke-width="1.5"></path><path d="M1106.65 539.24L1106.65 539.24" stroke="hsl(228.5, 77.2%, 51.5%)" stroke-width="1.5"></path><path d="M1106.65 539.24L1131.83 685.78" stroke="hsl(228.5, 77.2%, 51.5%)" stroke-width="1.5"></path><path d="M1106.65 539.24L1237.8 659.54" stroke="hsl(228.5, 77.2%, 51.5%)" stroke-width="1.5"></path><path d="M1131.83 685.78L1131.83 685.78" stroke="hsl(228.5, 77.2%, 51.5%)" stroke-width="1.5"></path><path d="M1131.83 685.78L1237.8 659.54" stroke="hsl(228.5, 77.2%, 51.5%)" stroke-width="1.5"></path><path d="M1307.33 -90.27L1307.33 -90.27" stroke="hsl(228.5, 77.2%, 51.5%)" stroke-width="1.5"></path><path d="M1307.33 -90.27L1403.23 -87.41" stroke="hsl(228.5, 77.2%, 51.5%)" stroke-width="1.5"></path><path d="M1302.42 77.59L1302.42 77.59" stroke="hsl(228.5, 77.2%, 51.5%)" stroke-width="1.5"></path><path d="M1302.42 77.59L1273.7 209.05" stroke="hsl(228.5, 77.2%, 51.5%)" stroke-width="1.5"></path><path d="M1302.42 77.59L1448.33 77.38" stroke="hsl(228.5, 77.2%, 51.5%)" stroke-width="1.5"></path><path d="M1302.42 77.59L1410.35 196.87" stroke="hsl(228.5, 77.2%, 51.5%)" stroke-width="1.5"></path><path d="M1302.42 77.59L1307.33 -90.27" stroke="hsl(228.5, 77.2%, 51.5%)" stroke-width="1.5"></path><path d="M1273.7 209.05L1273.7 209.05" stroke="hsl(228.5, 77.2%, 51.5%)" stroke-width="1.5"></path><path d="M1309.3 403.19L1309.3 403.19" stroke="hsl(228.5, 77.2%, 51.5%)" stroke-width="1.5"></path><path d="M1309.3 403.19L1424.06 348.74" stroke="hsl(228.5, 77.2%, 51.5%)" stroke-width="1.5"></path><path d="M1237.8 659.54L1237.8 659.54" stroke="hsl(228.5, 77.2%, 51.5%)" stroke-width="1.5"></path><path d="M1403.23 -87.41L1403.23 -87.41" stroke="hsl(228.5, 77.2%, 51.5%)" stroke-width="1.5"></path><path d="M1403.23 -87.41L1448.33 77.38" stroke="hsl(228.5, 77.2%, 51.5%)" stroke-width="1.5"></path><path d="M1403.23 -87.41L1302.42 77.59" stroke="hsl(228.5, 77.2%, 51.5%)" stroke-width="1.5"></path><path d="M1403.23 -87.41L1545.95 47.4" stroke="hsl(228.5, 77.2%, 51.5%)" stroke-width="1.5"></path><path d="M1403.23 -87.41L1608.11 -84.67" stroke="hsl(228.5, 77.2%, 51.5%)" stroke-width="1.5"></path><path d="M1448.33 77.38L1448.33 77.38" stroke="hsl(228.5, 77.2%, 51.5%)" stroke-width="1.5"></path><path d="M1448.33 77.38L1545.95 47.4" stroke="hsl(228.5, 77.2%, 51.5%)" stroke-width="1.5"></path><path d="M1410.35 196.87L1410.35 196.87" stroke="hsl(228.5, 77.2%, 51.5%)" stroke-width="1.5"></path><path d="M1410.35 196.87L1448.33 77.38" stroke="hsl(228.5, 77.2%, 51.5%)" stroke-width="1.5"></path><path d="M1410.35 196.87L1273.7 209.05" stroke="hsl(228.5, 77.2%, 51.5%)" stroke-width="1.5"></path><path d="M1410.35 196.87L1424.06 348.74" stroke="hsl(228.5, 77.2%, 51.5%)" stroke-width="1.5"></path><path d="M1424.06 348.74L1424.06 348.74" stroke="hsl(228.5, 77.2%, 51.5%)" stroke-width="1.5"></path><path d="M1401.71 526.01L1401.71 526.01" stroke="hsl(228.5, 77.2%, 51.5%)" stroke-width="1.5"></path><path d="M1401.71 526.01L1309.3 403.19" stroke="hsl(228.5, 77.2%, 51.5%)" stroke-width="1.5"></path><path d="M1401.71 526.01L1435.01 688.45" stroke="hsl(228.5, 77.2%, 51.5%)" stroke-width="1.5"></path><path d="M1401.71 526.01L1424.06 348.74" stroke="hsl(228.5, 77.2%, 51.5%)" stroke-width="1.5"></path><path d="M1401.71 526.01L1600.75 527.77" stroke="hsl(228.5, 77.2%, 51.5%)" stroke-width="1.5"></path><path d="M1401.71 526.01L1237.8 659.54" stroke="hsl(228.5, 77.2%, 51.5%)" stroke-width="1.5"></path><path d="M1435.01 688.45L1435.01 688.45" stroke="hsl(228.5, 77.2%, 51.5%)" stroke-width="1.5"></path><path d="M1608.11 -84.67L1608.11 -84.67" stroke="hsl(228.5, 77.2%, 51.5%)" stroke-width="1.5"></path><path d="M1608.11 -84.67L1545.95 47.4" stroke="hsl(228.5, 77.2%, 51.5%)" stroke-width="1.5"></path><path d="M1545.95 47.4L1545.95 47.4" stroke="hsl(228.5, 77.2%, 51.5%)" stroke-width="1.5"></path><path d="M1592.13 408.32L1592.13 408.32" stroke="hsl(228.5, 77.2%, 51.5%)" stroke-width="1.5"></path><path d="M1592.13 408.32L1600.75 527.77" stroke="hsl(228.5, 77.2%, 51.5%)" stroke-width="1.5"></path><path d="M1600.75 527.77L1600.75 527.77" stroke="hsl(228.5, 77.2%, 51.5%)" stroke-width="1.5"></path><circle r="25" cx="39.58" cy="647.79" fill="url(&quot;#SvgjsRadialGradient1001&quot;)"></circle><circle r="25" cx="708.92" cy="660.05" fill="url(&quot;#SvgjsRadialGradient1001&quot;)"></circle><circle r="25" cx="996.35" cy="233.1" fill="url(&quot;#SvgjsRadialGradient1001&quot;)"></circle><circle r="25" cx="1151.03" cy="241.71" fill="url(&quot;#SvgjsRadialGradient1001&quot;)"></circle><circle r="25" cx="1289.25" cy="488.74" fill="url(&quot;#SvgjsRadialGradient1001&quot;)"></circle><circle r="25" cx="1607.23" cy="246.62" fill="url(&quot;#SvgjsRadialGradient1001&quot;)"></circle><circle r="25" cx="1604.88" cy="652.83" fill="url(&quot;#SvgjsRadialGradient1001&quot;)"></circle><circle r="5" cx="-39.49" cy="488.01" fill="#8b9ad9"></circle><circle r="5" cx="-110.5" cy="651.26" fill="#8b9ad9"></circle><circle r="5" cx="75.98" cy="504.56" fill="#8b9ad9"></circle><circle r="5" cx="225.43" cy="519.92" fill="#8b9ad9"></circle><circle r="5" cx="254.34" cy="650.4" fill="#8b9ad9"></circle><circle r="5" cx="402.8" cy="516.67" fill="#8b9ad9"></circle><circle r="5" cx="346.09" cy="650.76" fill="#8b9ad9"></circle><circle r="5" cx="524.96" cy="554.54" fill="#8b9ad9"></circle><circle r="5" cx="537.41" cy="699.49" fill="#8b9ad9"></circle><circle r="5" cx="703.22" cy="363.07" fill="#8b9ad9"></circle><circle r="5" cx="685.88" cy="555.53" fill="#8b9ad9"></circle><circle r="5" cx="830.76" cy="397.46" fill="#8b9ad9"></circle><circle r="5" cx="854.43" cy="495.83" fill="#8b9ad9"></circle><circle r="5" cx="834.87" cy="685.43" fill="#8b9ad9"></circle><circle r="5" cx="1011.81" cy="370.53" fill="#8b9ad9"></circle><circle r="5" cx="1005.48" cy="516.97" fill="#8b9ad9"></circle><circle r="5" cx="988.2" cy="692.04" fill="#8b9ad9"></circle><circle r="5" cx="1157.15" cy="-85.71" fill="#8b9ad9"></circle><circle r="5" cx="1145.15" cy="408.54" fill="#8b9ad9"></circle><circle r="5" cx="1106.65" cy="539.24" fill="#8b9ad9"></circle><circle r="5" cx="1131.83" cy="685.78" fill="#8b9ad9"></circle><circle r="5" cx="1307.33" cy="-90.27" fill="#8b9ad9"></circle><circle r="5" cx="1302.42" cy="77.59" fill="#8b9ad9"></circle><circle r="5" cx="1273.7" cy="209.05" fill="#8b9ad9"></circle><circle r="5" cx="1309.3" cy="403.19" fill="#8b9ad9"></circle><circle r="5" cx="1237.8" cy="659.54" fill="#8b9ad9"></circle><circle r="5" cx="1403.23" cy="-87.41" fill="#8b9ad9"></circle><circle r="5" cx="1448.33" cy="77.38" fill="#8b9ad9"></circle><circle r="5" cx="1410.35" cy="196.87" fill="#8b9ad9"></circle><circle r="5" cx="1424.06" cy="348.74" fill="#8b9ad9"></circle><circle r="5" cx="1401.71" cy="526.01" fill="#8b9ad9"></circle><circle r="5" cx="1435.01" cy="688.45" fill="#8b9ad9"></circle><circle r="5" cx="1608.11" cy="-84.67" fill="#8b9ad9"></circle><circle r="5" cx="1545.95" cy="47.4" fill="#8b9ad9"></circle><circle r="5" cx="1592.13" cy="408.32" fill="#8b9ad9"></circle><circle r="5" cx="1600.75" cy="527.77" fill="#8b9ad9"></circle></g><defs><mask id="SvgjsMask1000"><rect width="1440" height="560" fill="#ffffff"></rect></mask><radialGradient id="SvgjsRadialGradient1001"><stop stop-color="#ffffff" offset="0.1"></stop><stop stop-color="#1735b3" offset="0.2"></stop><stop stop-color="rgba(23, 53, 179, 0)" offset="1"></stop></radialGradient></defs></svg>